<svg xmlns="http://www.w3.org/2000/svg" viewBox="0 0 660 400">
<style>@import url('https://fonts.googleapis.com/css2?family=Gaegu:wght@400;700&amp;display=swap');.g{font-family:'Gaegu',cursive;}</style>
<rect x="0" y="0" width="660" height="400" fill="#f4eede" stroke="#d8ceb8"/>
<text x="24" y="42" class="g" fill="#3a352c" font-size="26" font-weight="700">choo-studio 캠퍼스 안내도 ✎</text>
<text x="24" y="66" class="g" fill="#7a7259" font-size="16">— 마음 가는 건물로 들어가세요 (청강생: 나 혼자)</text>
<g transform="translate(0,74)">
  <path d="M40 300 C200 250 180 120 330 150 C480 180 470 90 620 120" fill="none" stroke="#b39b6e" stroke-width="6" stroke-linecap="round" stroke-dasharray="2 12"/>

  <g transform="rotate(-2 130 150)">
    <rect x="70" y="120" width="120" height="95" fill="#fbf7ec" stroke="#3f6f9f" stroke-width="2.5"/>
    <polygon points="58,122 130,78 202,122" fill="#cfe0ef" stroke="#3f6f9f" stroke-width="2.5" stroke-linejoin="round"/>
    <rect x="113" y="172" width="34" height="43" fill="#e7eef6" stroke="#3f6f9f" stroke-width="2"/>
    <rect x="83" y="138" width="24" height="24" fill="#e7eef6" stroke="#3f6f9f" stroke-width="2"/>
    <rect x="153" y="138" width="24" height="24" fill="#e7eef6" stroke="#3f6f9f" stroke-width="2"/>
  </g>
  <text x="130" y="238" text-anchor="middle" class="g" fill="#2f5476" font-size="18" font-weight="700">안경 · 눈 관</text>

  <g transform="rotate(1.5 490 130)">
    <rect x="432" y="98" width="120" height="98" fill="#fbf7ec" stroke="#4a7a5a" stroke-width="2.5"/>
    <polygon points="420,100 492,54 564,100" fill="#d2e6d6" stroke="#4a7a5a" stroke-width="2.5" stroke-linejoin="round"/>
    <rect x="475" y="152" width="34" height="44" fill="#e6f0e8" stroke="#4a7a5a" stroke-width="2"/>
    <text x="492" y="132" text-anchor="middle" class="g" fill="#3a6349" font-size="20">∫ π</text>
  </g>
  <text x="492" y="220" text-anchor="middle" class="g" fill="#3a6349" font-size="18" font-weight="700">수학 · 물리 관</text>

  <g transform="rotate(-1.5 165 275)">
    <rect x="105" y="252" width="120" height="72" fill="#fbf7ec" stroke="#7a6aab" stroke-width="2.5"/>
    <polygon points="93,254 165,218 237,254" fill="#e0daf0" stroke="#7a6aab" stroke-width="2.5" stroke-linejoin="round"/>
    <rect x="150" y="288" width="30" height="36" fill="#ece7f6" stroke="#7a6aab" stroke-width="2"/>
    <text x="128" y="278" text-anchor="middle" class="g" fill="#5a4d87" font-size="17">◈</text>
  </g>
  <text x="165" y="322" text-anchor="middle" class="g" fill="#5a4d87" font-size="18" font-weight="700">AI 관</text>

  <g transform="rotate(2 505 285)">
    <polygon points="452,262 505,232 558,262" fill="#f2ddc9" stroke="#c0562f" stroke-width="2.5" stroke-linejoin="round"/>
    <line x1="462" y1="262" x2="462" y2="312" stroke="#c0562f" stroke-width="2.5"/>
    <line x1="548" y1="262" x2="548" y2="312" stroke="#c0562f" stroke-width="2.5"/>
    <line x1="452" y1="312" x2="558" y2="312" stroke="#c0562f" stroke-width="2.5"/>
  </g>
  <text x="505" y="326" text-anchor="middle" class="g" fill="#9e4525" font-size="18" font-weight="700">잡담 정자</text>

  <circle cx="300" cy="80" r="16" fill="#bcd6ac" stroke="#6f8a5c" stroke-width="2"/>
  <line x1="300" y1="96" x2="300" y2="112" stroke="#6f8a5c" stroke-width="3"/>
  <circle cx="345" cy="255" r="13" fill="#bcd6ac" stroke="#6f8a5c" stroke-width="2"/>
  <line x1="345" y1="268" x2="345" y2="282" stroke="#6f8a5c" stroke-width="3"/>

  <text x="44" y="300" class="g" fill="#9e4525" font-size="16" font-weight="700">입구 ▶</text>
</g>
</svg>
